<svg xmlns="http://www.w3.org/2000/svg" version="1.1" xmlns:xlink="http://www.w3.org/1999/xlink" xmlns:svgjs="http://svgjs.dev/svgjs" width="1500" height="1500" viewBox="0 0 1500 1500"><rect width="1500" height="1500" fill="#ffffff"></rect><g transform="matrix(0.6666666666666666,0,0,0.6666666666666666,250,187.66666666666674)"><svg viewBox="0 0 320 360" data-background-color="#ffffff" preserveAspectRatio="xMidYMid meet" height="1687" width="1500" xmlns="http://www.w3.org/2000/svg" xmlns:xlink="http://www.w3.org/1999/xlink"><g id="tight-bounds" transform="matrix(1,0,0,1,0,0)"><svg viewBox="0 0 320 360" height="360" width="320"><g><svg></svg></g><g><svg viewBox="0 0 320 360" height="360" width="320"><g><path d="M159.823 340.15v0c-7.794 0-14.524-4.96-16.65-12.399-1.063-3.897-5.314-6.022-8.856-4.96-1.417 0.354-2.834 1.417-3.897 2.834-5.668 7.794-16.296 9.919-24.444 4.251-4.96-3.188-7.794-8.856-7.439-14.878 0-3.897-3.188-7.439-7.085-7.44-1.771 0-3.188 0.354-4.605 1.417-7.794 5.668-18.775 4.251-24.444-3.542-3.543-4.605-4.605-10.628-2.479-16.296 1.417-3.897-0.709-7.794-4.606-9.21-1.417-0.354-3.188-0.354-4.605 0-9.211 3.188-19.13-1.771-22.318-10.982-1.771-5.314-1.063-11.69 2.48-16.296 2.48-3.188 1.771-7.794-1.417-9.919-1.417-1.063-2.834-1.417-4.605-1.417-9.565 0.354-17.713-7.439-17.713-17.004 0-6.022 2.834-11.336 7.439-14.879 3.188-2.126 3.897-6.731 1.771-9.919-1.063-1.417-2.126-2.126-3.896-2.834-9.211-2.834-14.524-12.753-11.691-21.963 1.771-5.668 6.022-9.919 11.691-11.691 3.897-1.063 6.022-5.314 4.959-8.856-0.354-1.417-1.417-2.834-2.834-3.897-7.794-5.668-9.919-16.296-4.251-24.443 3.188-4.96 8.856-7.794 14.879-7.44 3.897 0 7.439-3.188 7.439-7.085 0-1.771-0.354-3.188-1.417-4.605-5.668-7.794-4.251-18.775 3.543-24.443 4.605-3.543 10.628-4.605 16.295-2.48 3.897 1.417 7.794-0.709 9.211-4.605 0.354-1.417 0.354-3.188 0-4.606-3.188-9.211 1.771-19.13 10.982-22.318 5.314-1.771 11.69-1.063 16.295 2.48 3.188 2.48 7.794 1.771 9.919-1.417 1.063-1.417 1.417-2.834 1.417-4.605-0.354-9.565 7.439-17.713 17.005-17.713 6.022 0 11.336 2.834 14.878 7.439 2.126 3.188 6.731 3.897 9.919 1.772 1.417-1.063 2.126-2.126 2.834-3.897 2.834-9.211 12.753-14.524 21.964-11.69 5.668 1.771 9.919 6.022 11.69 11.69v0c0.709 2.48 2.834 4.605 5.668 4.96 2.834 0.354 5.314-0.709 7.085-2.835 5.668-7.794 16.296-9.919 24.444-4.251 4.96 3.188 7.794 8.856 7.439 14.879 0 3.897 3.188 7.439 7.085 7.439 1.771 0 3.188-0.354 4.605-1.417 7.794-5.668 18.775-4.251 24.444 3.543 3.543 4.605 4.605 10.628 2.48 16.296-1.417 3.897 0.709 7.794 4.605 9.21 1.417 0.354 3.188 0.354 4.605 0 9.211-3.188 19.13 1.771 22.318 10.982 1.771 5.314 1.063 11.69-2.48 16.296-2.48 3.188-1.771 7.794 1.417 9.919 1.417 1.063 2.834 1.417 4.606 1.417 9.565-0.354 17.713 7.439 17.712 17.004 0 6.022-2.834 11.336-7.439 14.878-2.48 1.417-3.543 4.251-3.188 7.085 0.354 2.834 2.48 4.96 4.959 5.669 9.211 2.834 14.524 12.753 11.691 21.963-1.771 5.668-6.022 9.919-11.691 11.691-3.897 1.063-6.022 5.314-4.959 8.856 0.354 1.417 1.417 2.834 2.834 3.897 7.794 5.668 9.919 16.296 4.251 24.443-3.188 4.96-8.856 7.794-14.879 7.439-2.834 0-5.314 1.417-6.731 3.897-1.417 2.48-1.063 5.314 0.709 7.794 5.668 7.794 4.251 18.775-3.543 24.443-4.605 3.543-10.628 4.605-16.295 2.48-3.897-1.417-7.794 0.709-9.211 4.605-0.354 1.417-0.354 3.188 0 4.606 3.188 9.211-1.771 19.13-10.982 22.317-5.314 1.771-11.69 1.063-16.295-2.479-3.188-2.48-7.794-1.771-9.919 1.417-1.063 1.417-1.417 2.834-1.417 4.605 0.354 9.565-7.439 17.713-17.005 17.713-6.022 0-11.336-2.834-14.878-7.44-1.417-2.126-4.251-3.543-7.085-2.834-2.834 0.354-4.96 2.48-5.668 4.96-2.126 7.439-8.856 12.399-16.65 12.399zM136.088 312.518c1.063 0 1.771 0 2.834 0.354 6.731 1.063 12.045 5.668 13.816 12.045 1.063 3.897 5.314 6.022 8.856 4.605 2.126-0.709 3.897-2.48 4.605-4.605 2.834-9.211 12.753-14.524 21.964-11.691 3.543 1.063 7.085 3.543 9.211 6.731 2.48 3.188 6.731 3.897 10.273 1.417 1.771-1.417 2.834-3.543 2.834-5.668-0.354-9.565 7.439-17.713 17.004-17.712 3.897 0 7.794 1.063 10.982 3.542 3.188 2.48 7.794 1.771 9.919-1.417 1.417-1.771 1.771-4.605 1.063-6.731-3.188-9.211 1.417-19.13 10.627-22.318 3.897-1.417 7.794-1.417 11.691 0 3.897 1.417 7.794-0.709 9.21-4.605 0.709-2.126 0.354-4.96-1.062-6.731-5.668-7.794-4.251-18.775 3.542-24.443 3.188-2.48 7.085-3.543 10.982-3.543 3.897 0 7.085-3.188 7.439-7.085 0-2.48-1.063-4.605-3.188-6.022-7.794-5.668-9.919-16.296-4.251-24.443 2.126-3.188 5.314-5.668 9.211-6.731 3.897-1.063 6.022-5.314 4.605-8.857-0.709-2.126-2.48-3.897-4.605-4.605-9.211-2.834-14.524-12.753-11.691-21.964 1.063-3.543 3.543-7.085 6.731-9.21 3.188-2.48 3.897-7.085 1.417-10.273-1.417-1.771-3.543-2.834-5.668-2.834-9.565 0.354-17.713-7.439-17.713-17.005 0-3.897 1.063-7.794 3.543-10.981 2.48-3.188 1.771-7.794-1.417-9.92-1.771-1.417-4.605-1.771-6.731-1.062-9.211 3.188-19.13-1.417-22.318-10.628-1.417-3.897-1.417-7.794 0-11.69 1.417-3.897-0.709-7.794-4.605-9.211-2.126-0.709-4.96-0.354-6.731 1.063-7.794 5.668-18.775 4.251-24.443-3.543-2.48-3.188-3.543-7.085-3.543-10.981 0-3.897-3.188-7.085-7.439-7.085-2.126 0-4.605 1.063-5.668 2.834-5.668 7.794-16.296 9.919-24.444 4.251-3.188-2.126-5.668-5.314-6.731-9.211v0c-1.063-3.897-5.314-6.022-8.856-4.605-2.126 0.709-3.897 2.48-4.605 4.605-2.834 9.211-12.753 14.524-21.964 11.69-3.543-1.063-7.085-3.543-9.21-6.73-2.48-3.188-6.731-3.897-10.274-1.417-1.771 1.417-2.834 3.543-2.834 5.668 0.354 9.565-7.439 17.713-17.004 17.712-3.897 0-7.794-1.063-10.982-3.542-3.188-2.48-7.794-1.771-9.919 1.417-1.417 1.771-1.771 4.605-1.063 6.731 3.188 9.211-1.417 19.13-10.627 22.317-3.897 1.417-7.794 1.417-11.691 0-3.897-1.417-7.794 0.709-9.21 4.606-0.709 2.126-0.354 4.96 1.063 6.731 5.668 7.794 4.251 18.775-3.543 24.443-3.188 2.48-7.085 3.543-10.982 3.543-3.897 0-7.085 3.188-7.085 7.439 0 2.126 1.063 4.605 2.834 5.668 7.794 5.668 9.919 16.296 4.251 24.443-2.126 3.188-5.314 5.668-9.21 6.731-3.897 1.063-6.022 5.314-4.606 8.856 0.709 2.126 2.48 3.897 4.606 4.606 9.211 2.834 14.524 12.753 11.69 21.963-1.063 3.543-3.543 7.085-6.731 9.211-3.188 2.48-3.897 6.731-1.417 10.273 1.417 1.771 3.543 2.834 5.668 2.834 9.565-0.354 17.713 7.439 17.713 17.004 0 3.897-1.063 7.794-3.543 10.982-2.48 3.188-1.771 7.794 1.417 9.919 1.771 1.417 4.605 1.771 6.731 1.063 9.211-3.188 19.13 1.417 22.318 10.628 1.417 3.897 1.417 7.794 0 11.69-1.417 3.897 0.709 7.794 4.605 9.211 2.126 0.709 4.96 0.354 6.731-1.063 7.794-5.668 18.775-4.251 24.444 3.542 2.48 3.188 3.543 7.085 3.542 10.982 0 3.897 3.188 7.085 7.085 7.44 2.48 0 4.605-1.063 6.023-3.189 3.543-4.605 8.856-7.439 14.524-7.439z" fill="#000000" fill-rule="nonzero" stroke="none" stroke-width="1" stroke-linecap="butt" stroke-linejoin="miter" stroke-miterlimit="10" stroke-dasharray="" stroke-dashoffset="0" font-family="none" font-weight="none" font-size="none" text-anchor="none" style="mix-blend-mode: normal" data-fill-palette-color="tertiary"></path></g><g transform="matrix(1,0,0,1,56,127.93288850144114)"><svg viewBox="0 0 208 104.13422299711773" height="104.13422299711773" width="208"><g><svg viewBox="0 0 208 104.13422299711773" height="104.13422299711773" width="208"><g><svg viewBox="0 0 208 104.13422299711773" height="104.13422299711773" width="208"><g id="textblocktransform"><svg viewBox="0 0 208 104.13422299711773" height="104.13422299711773" width="208" id="textblock"><g><svg viewBox="0 0 208 56.45387994143485" height="56.45387994143485" width="208"><g transform="matrix(1,0,0,1,0,0)"><svg width="208" viewBox="3.25 -35.45 133.39 36.21" height="56.45387994143485" data-palette-color="#ee3e38"><path d="M27.76-7.01L27.76 0 3.25 0 3.25-35.01 10.25-35.01 10.25-7.01 27.76-7.01ZM64.5-17.36L64.5-17.36Q64.5-14.87 63.85-12.56 63.21-10.25 62.03-8.24 60.86-6.23 59.2-4.57 57.54-2.91 55.54-1.72 53.54-0.54 51.22 0.11 48.9 0.76 46.41 0.76L46.41 0.76Q43.92 0.76 41.61 0.11 39.3-0.54 37.29-1.72 35.28-2.91 33.62-4.57 31.96-6.23 30.77-8.24 29.59-10.25 28.94-12.56 28.29-14.87 28.29-17.36L28.29-17.36Q28.29-19.85 28.94-22.17 29.59-24.49 30.77-26.49 31.96-28.49 33.62-30.15 35.28-31.81 37.29-32.98 39.3-34.16 41.61-34.8 43.92-35.45 46.41-35.45L46.41-35.45Q48.9-35.45 51.22-34.8 53.54-34.16 55.54-32.98 57.54-31.81 59.2-30.15 60.86-28.49 62.03-26.49 63.21-24.49 63.85-22.17 64.5-19.85 64.5-17.36ZM57.54-17.36L57.54-17.36Q57.54-19.65 56.66-21.69 55.78-23.73 54.28-25.23 52.78-26.73 50.74-27.61 48.7-28.49 46.41-28.49L46.41-28.49Q44.09-28.49 42.06-27.61 40.04-26.73 38.52-25.23 37.01-23.73 36.13-21.69 35.25-19.65 35.25-17.36L35.25-17.36Q35.25-15.06 36.13-13.05 37.01-11.04 38.52-9.52 40.04-8.01 42.06-7.13 44.09-6.25 46.41-6.25L46.41-6.25Q48.7-6.25 50.74-7.13 52.78-8.01 54.28-9.52 55.78-11.04 56.66-13.05 57.54-15.06 57.54-17.36ZM96.94-17.36L96.94-3.54Q94.5-1.46 91.5-0.35 88.5 0.76 85.25 0.76L85.25 0.76Q82.76 0.76 80.45 0.11 78.14-0.54 76.14-1.72 74.14-2.91 72.48-4.55 70.82-6.2 69.65-8.22 68.48-10.23 67.83-12.55 67.18-14.87 67.18-17.36L67.18-17.36Q67.18-19.85 67.83-22.14 68.48-24.44 69.65-26.45 70.82-28.47 72.48-30.11 74.14-31.76 76.14-32.93 78.14-34.11 80.45-34.75 82.76-35.4 85.25-35.4L85.25-35.4Q88.5-35.4 91.5-34.29 94.5-33.18 96.94-31.1L96.94-31.1 93.28-25Q91.69-26.61 89.62-27.53 87.54-28.44 85.25-28.44L85.25-28.44Q82.95-28.44 80.94-27.56 78.93-26.68 77.41-25.18 75.9-23.68 75.02-21.67 74.14-19.65 74.14-17.36L74.14-17.36Q74.14-15.04 75.02-13.01 75.9-10.99 77.41-9.47 78.93-7.96 80.94-7.08 82.95-6.2 85.25-6.2L85.25-6.2Q86.57-6.2 87.81-6.52 89.06-6.84 90.18-7.4L90.18-7.4 90.18-17.36 96.94-17.36ZM136.64-17.36L136.64-17.36Q136.64-14.87 135.99-12.56 135.34-10.25 134.17-8.24 133-6.23 131.34-4.57 129.68-2.91 127.68-1.72 125.68-0.54 123.36 0.11 121.04 0.76 118.55 0.76L118.55 0.76Q116.06 0.76 113.75 0.11 111.44-0.54 109.43-1.72 107.41-2.91 105.75-4.57 104.09-6.23 102.91-8.24 101.73-10.25 101.08-12.56 100.43-14.87 100.43-17.36L100.43-17.36Q100.43-19.85 101.08-22.17 101.73-24.49 102.91-26.49 104.09-28.49 105.75-30.15 107.41-31.81 109.43-32.98 111.44-34.16 113.75-34.8 116.06-35.45 118.55-35.45L118.55-35.45Q121.04-35.45 123.36-34.8 125.68-34.16 127.68-32.98 129.68-31.81 131.34-30.15 133-28.49 134.17-26.49 135.34-24.49 135.99-22.17 136.64-19.85 136.64-17.36ZM129.68-17.36L129.68-17.36Q129.68-19.65 128.8-21.69 127.92-23.73 126.42-25.23 124.92-26.73 122.88-27.61 120.84-28.49 118.55-28.49L118.55-28.49Q116.23-28.49 114.2-27.61 112.18-26.73 110.66-25.23 109.15-23.73 108.27-21.69 107.39-19.65 107.39-17.36L107.39-17.36Q107.39-15.06 108.27-13.05 109.15-11.04 110.66-9.52 112.18-8.01 114.2-7.13 116.23-6.25 118.55-6.25L118.55-6.25Q120.84-6.25 122.88-7.13 124.92-8.01 126.42-9.52 127.92-11.04 128.8-13.05 129.68-15.06 129.68-17.36Z" opacity="1" transform="matrix(1,0,0,1,0,0)" fill="#000000" class="wordmark-text-0" data-fill-palette-color="primary" id="text-0"></path></svg></g></svg></g><g transform="matrix(1,0,0,1,87.46400000000001,69.78128610248902)"><svg viewBox="0 0 120.53599999999999 34.352936894628705" height="34.352936894628705" width="120.53599999999999"><g transform="matrix(1,0,0,1,0,0)"><svg width="120.53599999999999" viewBox="0.6 -37.7 170.33 48.550000000000004" height="34.352936894628705" data-palette-color="#8d021f"><path d="M24.9-26.45L30.6-26.45 26.05 0 18.55 0 15.6-20.85 12.7 0 5.25 0 0.6-26.45 6.55-26.45 9.25-4.6 12.6-26.45 18.85-26.45 22.05-4.6 24.9-26.45ZM52.95-13.85Q52.95-13.4 52.8-11.3L52.8-11.3 39.15-11.3Q39.35-7.2 40.57-5.58 41.8-3.95 44.05-3.95L44.05-3.95Q45.6-3.95 46.85-4.48 48.1-5 49.55-6.15L49.55-6.15 52.1-2.65Q48.6 0.75 43.7 0.75L43.7 0.75Q38.5 0.75 35.72-2.85 32.95-6.45 32.95-13L32.95-13Q32.95-19.55 35.6-23.35 38.25-27.15 43.1-27.15L43.1-27.15Q47.75-27.15 50.35-23.78 52.95-20.4 52.95-13.85L52.95-13.85ZM46.95-15.3L46.95-15.65Q46.95-19.4 46.05-21.13 45.15-22.85 43.15-22.85L43.15-22.85Q41.3-22.85 40.32-21.18 39.35-19.5 39.15-15.3L39.15-15.3 46.95-15.3ZM69.4-27.15Q73.25-27.15 75.3-23.65 77.34-20.15 77.34-13.25L77.34-13.25Q77.34-6.75 75.05-3 72.75 0.75 68.75 0.75L68.75 0.75Q67 0.75 65.55-0.13 64.09-1 63.05-2.55L63.05-2.55 62.7 0 57.25 0 57.25-37 63.4-37.65 63.4-23.6Q64.45-25.3 65.97-26.23 67.5-27.15 69.4-27.15L69.4-27.15ZM67.09-3.9Q68.95-3.9 69.97-6 71-8.1 71-13.25L71-13.25Q71-18.6 70.07-20.58 69.15-22.55 67.45-22.55L67.45-22.55Q66.3-22.55 65.25-21.6 64.2-20.65 63.4-19.1L63.4-19.1 63.4-6.7Q64.05-5.45 65.02-4.67 66-3.9 67.09-3.9L67.09-3.9ZM97.39 0.75Q94.69 0.75 93.11-0.93 91.54-2.6 91.54-5.4L91.54-5.4 91.54-37.05 97.69-37.7 97.69-5.65Q97.69-5 97.99-4.6 98.29-4.2 98.89-4.2L98.89-4.2Q99.24-4.2 99.56-4.3 99.89-4.4 99.99-4.4L99.99-4.4 101.19-0.2Q99.49 0.75 97.39 0.75L97.39 0.75ZM113.64-27.15Q118.64-27.15 121.41-23.65 124.19-20.15 124.19-13.25L124.19-13.25Q124.19-6.65 121.39-2.95 118.59 0.75 113.64 0.75L113.64 0.75Q108.69 0.75 105.89-2.88 103.09-6.5 103.09-13.25L103.09-13.25Q103.09-19.95 105.89-23.55 108.69-27.15 113.64-27.15L113.64-27.15ZM113.64-22.5Q111.49-22.5 110.49-20.38 109.49-18.25 109.49-13.25L109.49-13.25Q109.49-8.2 110.49-6.08 111.49-3.95 113.64-3.95L113.64-3.95Q115.79-3.95 116.79-6.08 117.79-8.2 117.79-13.25L117.79-13.25Q117.79-18.3 116.79-20.4 115.79-22.5 113.64-22.5L113.64-22.5ZM146.69-29.85L148.24-25.1Q147.19-24.6 145.71-24.4 144.24-24.2 142.03-24.2L142.03-24.2Q144.13-23.2 145.16-21.53 146.19-19.85 146.19-17.4L146.19-17.4Q146.19-13.4 143.74-10.95 141.28-8.5 137.09-8.5L137.09-8.5Q135.84-8.5 134.53-8.9L134.53-8.9Q133.63-8.15 133.63-6.85L133.63-6.85Q133.63-5.85 134.19-5.35 134.74-4.85 136.24-4.85L136.24-4.85 139.03-4.85Q143.03-4.85 145.38-2.78 147.74-0.7 147.74 2.5L147.74 2.5Q147.74 6.3 144.81 8.58 141.88 10.85 136.49 10.85L136.49 10.85Q130.78 10.85 128.51 8.75 126.23 6.65 126.23 2.6L126.23 2.6 131.69 2.6Q131.69 4.75 132.69 5.65 133.69 6.55 136.53 6.55L136.53 6.55Q139.28 6.55 140.44 5.6 141.59 4.65 141.59 2.9L141.59 2.9Q141.59 1.2 140.63 0.4 139.69-0.4 137.69-0.4L137.69-0.4 135.78-0.4Q131.99-0.4 130.24-1.75 128.49-3.1 128.49-5.45L128.49-5.45Q128.49-6.8 129.21-8.03 129.94-9.25 131.19-10.2L131.19-10.2Q129.13-11.5 128.19-13.3 127.23-15.1 127.23-17.7L127.23-17.7Q127.23-22.05 129.84-24.58 132.44-27.1 136.84-27.1L136.84-27.1Q140.09-27.1 142.21-27.8 144.34-28.5 146.69-29.85L146.69-29.85ZM136.84-23Q135.09-23 134.19-21.75 133.28-20.5 133.28-17.8L133.28-17.8Q133.28-15.25 134.19-13.88 135.09-12.5 136.78-12.5L136.78-12.5Q138.53-12.5 139.38-13.73 140.24-14.95 140.24-17.85L140.24-17.85Q140.24-20.55 139.41-21.78 138.59-23 136.84-23L136.84-23ZM160.38-27.15Q165.38-27.15 168.16-23.65 170.93-20.15 170.93-13.25L170.93-13.25Q170.93-6.65 168.13-2.95 165.33 0.75 160.38 0.75L160.38 0.75Q155.43 0.75 152.63-2.88 149.83-6.5 149.83-13.25L149.83-13.25Q149.83-19.95 152.63-23.55 155.43-27.15 160.38-27.15L160.38-27.15ZM160.38-22.5Q158.23-22.5 157.23-20.38 156.23-18.25 156.23-13.25L156.23-13.25Q156.23-8.2 157.23-6.08 158.23-3.95 160.38-3.95L160.38-3.95Q162.53-3.95 163.53-6.08 164.53-8.2 164.53-13.25L164.53-13.25Q164.53-18.3 163.53-20.4 162.53-22.5 160.38-22.5L160.38-22.5Z" opacity="1" transform="matrix(1,0,0,1,0,0)" fill="#000000" class="slogan-text-1" data-fill-palette-color="secondary" id="text-1"></path></svg></g></svg></g></svg></g></svg></g></svg></g></svg></g></svg></g><defs></defs></svg><rect width="320" height="360" fill="none" stroke="none" visibility="hidden"></rect></g></svg></g></svg>